<svg width="24" height="22" viewBox="0 0 24 22" fill="none" xmlns="http://www.w3.org/2000/svg">
<path d="M22.4453 9.63282C23.2902 9.63282 23.643 8.54727 22.9566 8.04688L12.5141 0.450787C12.3649 0.341527 12.1849 0.282623 12 0.282623C11.8151 0.282623 11.6351 0.341527 11.4859 0.450787L1.04337 8.04688C0.357038 8.54454 0.709772 9.63282 1.55743 9.63282H3.25001V19.8594H1.28126C1.16094 19.8594 1.06251 19.9578 1.06251 20.0781V21.5C1.06251 21.6203 1.16094 21.7188 1.28126 21.7188H22.7188C22.8391 21.7188 22.9375 21.6203 22.9375 21.5V20.0781C22.9375 19.9578 22.8391 19.8594 22.7188 19.8594H20.75V9.63282H22.4453ZM12 2.37852L19.4129 7.77071H4.58712L12 2.37852ZM5.21876 9.63282H8.41798V19.8594H5.21876V9.63282ZM10.3867 9.63282H13.5859V19.8594H10.3867V9.63282ZM18.7813 19.8594H15.5547V9.63282H18.7813V19.8594Z" fill="white"/>
</svg>
