<svg width="18" height="18" viewBox="0 0 18 18" fill="none" xmlns="http://www.w3.org/2000/svg">
<path d="M13.7445 6.7445C13.9088 6.5802 14.0011 6.35736 14.0011 6.125C14.0011 5.89264 13.9088 5.6698 13.7445 5.5055C13.5802 5.3412 13.3574 5.24889 13.125 5.24889C12.8926 5.24889 12.6698 5.3412 12.5055 5.5055L7 11.0128L4.9945 9.0055C4.8302 8.8412 4.60736 8.74889 4.375 8.74889C4.14264 8.74889 3.9198 8.8412 3.7555 9.0055C3.5912 9.1698 3.49889 9.39264 3.49889 9.625C3.49889 9.85736 3.5912 10.0802 3.7555 10.2445L6.3805 12.8695C6.46178 12.951 6.55834 13.0156 6.66464 13.0597C6.77095 13.1039 6.88491 13.1266 7 13.1266C7.11509 13.1266 7.22905 13.1039 7.33536 13.0597C7.44166 13.0156 7.53822 12.951 7.6195 12.8695L13.7445 6.7445V6.7445ZM0 2.625C0 1.92881 0.276562 1.26113 0.768845 0.768845C1.26113 0.276562 1.92881 0 2.625 0H14.875C15.5712 0 16.2389 0.276562 16.7312 0.768845C17.2234 1.26113 17.5 1.92881 17.5 2.625V14.875C17.5 15.5712 17.2234 16.2389 16.7312 16.7312C16.2389 17.2234 15.5712 17.5 14.875 17.5H2.625C1.92881 17.5 1.26113 17.2234 0.768845 16.7312C0.276562 16.2389 0 15.5712 0 14.875V2.625ZM14.875 1.75H2.625C2.39294 1.75 2.17038 1.84219 2.00628 2.00628C1.84219 2.17038 1.75 2.39294 1.75 2.625V14.875C1.75 15.1071 1.84219 15.3296 2.00628 15.4937C2.17038 15.6578 2.39294 15.75 2.625 15.75H14.875C15.1071 15.75 15.3296 15.6578 15.4937 15.4937C15.6578 15.3296 15.75 15.1071 15.75 14.875V2.625C15.75 2.39294 15.6578 2.17038 15.4937 2.00628C15.3296 1.84219 15.1071 1.75 14.875 1.75Z" fill="#40ECB0"/>
</svg>
