<svg width="35" height="35" viewBox="0 0 35 35" fill="none" xmlns="http://www.w3.org/2000/svg">
<rect width="35" height="35" rx="5" fill="#272A46"/>
<path d="M9.35666 9.35666C9.46944 9.24361 9.6034 9.15391 9.7509 9.0927C9.89839 9.0315 10.0565 9 10.2162 9C10.3759 9 10.534 9.0315 10.6815 9.0927C10.829 9.15391 10.9629 9.24361 11.0757 9.35666L17.5003 15.7837L23.9249 9.35666C24.0378 9.24379 24.1718 9.15425 24.3193 9.09316C24.4668 9.03208 24.6248 9.00064 24.7844 9.00064C24.9441 9.00064 25.1021 9.03208 25.2496 9.09316C25.3971 9.15425 25.5311 9.24379 25.644 9.35666C25.7568 9.46954 25.8464 9.60354 25.9075 9.75102C25.9686 9.8985 26 10.0566 26 10.2162C26 10.3758 25.9686 10.5339 25.9075 10.6814C25.8464 10.8288 25.7568 10.9628 25.644 11.0757L19.2169 17.5003L25.644 23.9249C25.7568 24.0378 25.8464 24.1718 25.9075 24.3193C25.9686 24.4668 26 24.6248 26 24.7844C26 24.9441 25.9686 25.1021 25.9075 25.2496C25.8464 25.3971 25.7568 25.5311 25.644 25.644C25.5311 25.7568 25.3971 25.8464 25.2496 25.9075C25.1021 25.9686 24.9441 26 24.7844 26C24.6248 26 24.4668 25.9686 24.3193 25.9075C24.1718 25.8464 24.0378 25.7568 23.9249 25.644L17.5003 19.2169L11.0757 25.644C10.9628 25.7568 10.8288 25.8464 10.6814 25.9075C10.5339 25.9686 10.3758 26 10.2162 26C10.0566 26 9.8985 25.9686 9.75102 25.9075C9.60354 25.8464 9.46954 25.7568 9.35666 25.644C9.24379 25.5311 9.15425 25.3971 9.09316 25.2496C9.03208 25.1021 9.00064 24.9441 9.00064 24.7844C9.00064 24.6248 9.03208 24.4668 9.09316 24.3193C9.15425 24.1718 9.24379 24.0378 9.35666 23.9249L15.7837 17.5003L9.35666 11.0757C9.24361 10.9629 9.15391 10.829 9.0927 10.6815C9.0315 10.534 9 10.3759 9 10.2162C9 10.0565 9.0315 9.89839 9.0927 9.7509C9.15391 9.6034 9.24361 9.46944 9.35666 9.35666Z" fill="white"/>
</svg>
