<svg width="28" height="28" viewBox="0 0 28 28" fill="none" xmlns="http://www.w3.org/2000/svg">
<path d="M0 7C0 6.07174 0.368749 5.1815 1.02513 4.52513C1.6815 3.86875 2.57174 3.5 3.5 3.5H24.5C25.4283 3.5 26.3185 3.86875 26.9749 4.52513C27.6313 5.1815 28 6.07174 28 7V21C28 21.9283 27.6313 22.8185 26.9749 23.4749C26.3185 24.1313 25.4283 24.5 24.5 24.5H3.5C2.57174 24.5 1.6815 24.1313 1.02513 23.4749C0.368749 22.8185 0 21.9283 0 21V7ZM3.5 5.25C3.03587 5.25 2.59075 5.43437 2.26256 5.76256C1.93437 6.09075 1.75 6.53587 1.75 7V8.75H26.25V7C26.25 6.53587 26.0656 6.09075 25.7374 5.76256C25.4092 5.43437 24.9641 5.25 24.5 5.25H3.5ZM26.25 12.25H1.75V21C1.75 21.4641 1.93437 21.9092 2.26256 22.2374C2.59075 22.5656 3.03587 22.75 3.5 22.75H24.5C24.9641 22.75 25.4092 22.5656 25.7374 22.2374C26.0656 21.9092 26.25 21.4641 26.25 21V12.25Z" fill="white"/>
<path d="M3.5 17.5C3.5 17.0359 3.68437 16.5908 4.01256 16.2626C4.34075 15.9344 4.78587 15.75 5.25 15.75H7C7.46413 15.75 7.90925 15.9344 8.23744 16.2626C8.56563 16.5908 8.75 17.0359 8.75 17.5V19.25C8.75 19.7141 8.56563 20.1592 8.23744 20.4874C7.90925 20.8156 7.46413 21 7 21H5.25C4.78587 21 4.34075 20.8156 4.01256 20.4874C3.68437 20.1592 3.5 19.7141 3.5 19.25V17.5Z" fill="white"/>
</svg>
