<svg width="28" height="28" viewBox="0 0 28 28" fill="none" xmlns="http://www.w3.org/2000/svg">
<path d="M2.33331 8.16668C2.33331 7.54784 2.57915 6.95435 3.01673 6.51676C3.45432 6.07918 4.04781 5.83334 4.66665 5.83334H23.3333C23.9522 5.83334 24.5456 6.07918 24.9832 6.51676C25.4208 6.95435 25.6666 7.54784 25.6666 8.16668V19.8333C25.6666 20.4522 25.4208 21.0457 24.9832 21.4833C24.5456 21.9208 23.9522 22.1667 23.3333 22.1667H4.66665C4.04781 22.1667 3.45432 21.9208 3.01673 21.4833C2.57915 21.0457 2.33331 20.4522 2.33331 19.8333V8.16668Z" stroke="white" stroke-width="2.33333" stroke-linecap="round" stroke-linejoin="round"/>
<path d="M14 17.5C15.933 17.5 17.5 15.933 17.5 14C17.5 12.067 15.933 10.5 14 10.5C12.067 10.5 10.5 12.067 10.5 14C10.5 15.933 12.067 17.5 14 17.5Z" stroke="white" stroke-width="2.33333" stroke-linecap="round" stroke-linejoin="round"/>
<path d="M21 22.1667C21 20.929 21.4916 19.742 22.3668 18.8668C23.242 17.9917 24.429 17.5 25.6666 17.5M2.33331 10.5C3.57099 10.5 4.75798 10.0083 5.63314 9.13318C6.50831 8.25801 6.99998 7.07102 6.99998 5.83334L2.33331 10.5Z" stroke="white" stroke-width="2.33333" stroke-linecap="round" stroke-linejoin="round"/>
</svg>
