<svg width="32" height="21" viewBox="0 0 32 21" fill="none" xmlns="http://www.w3.org/2000/svg">
<path d="M11.0949 7.19086C10.9887 7.08443 10.8626 6.99999 10.7237 6.94237C10.5849 6.88476 10.436 6.8551 10.2857 6.8551C10.1354 6.8551 9.98654 6.88476 9.84769 6.94237C9.70885 6.99999 9.58273 7.08443 9.47657 7.19086L8 8.66971L6.52343 7.19086C6.41717 7.0846 6.29102 7.00031 6.15219 6.9428C6.01336 6.8853 5.86456 6.8557 5.71429 6.8557C5.56401 6.8557 5.41521 6.8853 5.27638 6.9428C5.13755 7.00031 5.0114 7.0846 4.90514 7.19086C4.79888 7.29711 4.7146 7.42326 4.65709 7.56209C4.59958 7.70093 4.56999 7.84973 4.56999 8C4.56999 8.15027 4.59958 8.29907 4.65709 8.4379C4.7146 8.57674 4.79888 8.70288 4.90514 8.80914L6.384 10.2857L4.90514 11.7623C4.79888 11.8685 4.7146 11.9947 4.65709 12.1335C4.59958 12.2724 4.56999 12.4212 4.56999 12.5714C4.56999 12.7217 4.59958 12.8705 4.65709 13.0093C4.7146 13.1482 4.79888 13.2743 4.90514 13.3806C5.11974 13.5952 5.4108 13.7157 5.71429 13.7157C5.86456 13.7157 6.01336 13.6861 6.15219 13.6286C6.29102 13.5711 6.41717 13.4868 6.52343 13.3806L8 11.9017L9.47657 13.3806C9.58283 13.4868 9.70898 13.5711 9.84781 13.6286C9.98664 13.6861 10.1354 13.7157 10.2857 13.7157C10.436 13.7157 10.5848 13.6861 10.7236 13.6286C10.8625 13.5711 10.9886 13.4868 11.0949 13.3806C11.2011 13.2743 11.2854 13.1482 11.3429 13.0093C11.4004 12.8705 11.43 12.7217 11.43 12.5714C11.43 12.4212 11.4004 12.2724 11.3429 12.1335C11.2854 11.9947 11.2011 11.8685 11.0949 11.7623L9.616 10.2857L11.0949 8.80914C11.2013 8.70298 11.2857 8.57687 11.3433 8.43802C11.401 8.29917 11.4306 8.15032 11.4306 8C11.4306 7.84967 11.401 7.70083 11.3433 7.56198C11.2857 7.42313 11.2013 7.29702 11.0949 7.19086ZM18.6194 7.19086C18.7257 7.0846 18.8518 7.00031 18.9907 6.9428C19.1295 6.8853 19.2783 6.8557 19.4286 6.8557C19.5788 6.8557 19.7276 6.8853 19.8665 6.9428C20.0053 7.00031 20.1315 7.0846 20.2377 7.19086C20.344 7.29711 20.4283 7.42326 20.4858 7.56209C20.5433 7.70093 20.5729 7.84973 20.5729 8C20.5729 8.15027 20.5433 8.29907 20.4858 8.4379C20.4283 8.57674 20.344 8.70288 20.2377 8.80914L18.7589 10.2857L20.2377 11.7623C20.4523 11.9769 20.5729 12.2679 20.5729 12.5714C20.5729 12.8749 20.4523 13.166 20.2377 13.3806C20.0231 13.5952 19.7321 13.7157 19.4286 13.7157C19.1251 13.7157 18.834 13.5952 18.6194 13.3806L17.1429 11.9017L15.6663 13.3806C15.56 13.4868 15.4339 13.5711 15.295 13.6286C15.1562 13.6861 15.0074 13.7157 14.8571 13.7157C14.7069 13.7157 14.5581 13.6861 14.4192 13.6286C14.2804 13.5711 14.1543 13.4868 14.048 13.3806C13.9417 13.2743 13.8575 13.1482 13.7999 13.0093C13.7424 12.8705 13.7128 12.7217 13.7128 12.5714C13.7128 12.4212 13.7424 12.2724 13.7999 12.1335C13.8575 11.9947 13.9417 11.8685 14.048 11.7623L15.5269 10.2857L14.048 8.80914C13.9417 8.70288 13.8575 8.57674 13.7999 8.4379C13.7424 8.29907 13.7128 8.15027 13.7128 8C13.7128 7.84973 13.7424 7.70093 13.7999 7.56209C13.8575 7.42326 13.9417 7.29711 14.048 7.19086C14.1543 7.0846 14.2804 7.00031 14.4192 6.9428C14.5581 6.8853 14.7069 6.8557 14.8571 6.8557C15.0074 6.8557 15.1562 6.8853 15.295 6.9428C15.4339 7.00031 15.56 7.0846 15.6663 7.19086L17.1429 8.66971L18.6194 7.19086V7.19086ZM24 11.4286C23.6969 11.4286 23.4062 11.549 23.1919 11.7633C22.9776 11.9776 22.8571 12.2683 22.8571 12.5714C22.8571 12.8745 22.9776 13.1652 23.1919 13.3796C23.4062 13.5939 23.6969 13.7143 24 13.7143H26.2857C26.5888 13.7143 26.8795 13.5939 27.0938 13.3796C27.3082 13.1652 27.4286 12.8745 27.4286 12.5714C27.4286 12.2683 27.3082 11.9776 27.0938 11.7633C26.8795 11.549 26.5888 11.4286 26.2857 11.4286H24ZM5.71429 0C4.19876 0 2.74531 0.602039 1.67368 1.67368C0.602039 2.74531 0 4.19876 0 5.71429V14.8571C0 15.6076 0.147804 16.3506 0.434974 17.0439C0.722144 17.7372 1.14306 18.3671 1.67368 18.8978C2.74531 19.9694 4.19876 20.5714 5.71429 20.5714H26.2857C27.0361 20.5714 27.7792 20.4236 28.4725 20.1365C29.1658 19.8493 29.7957 19.4284 30.3263 18.8978C30.8569 18.3671 31.2779 17.7372 31.565 17.0439C31.8522 16.3506 32 15.6076 32 14.8571V5.71429C32 4.19876 31.398 2.74531 30.3263 1.67368C29.2547 0.602039 27.8012 0 26.2857 0H5.71429ZM2.28571 5.71429C2.28571 4.80497 2.64694 3.9329 3.28992 3.28992C3.9329 2.64694 4.80497 2.28571 5.71429 2.28571H26.2857C27.195 2.28571 28.0671 2.64694 28.7101 3.28992C29.3531 3.9329 29.7143 4.80497 29.7143 5.71429V14.8571C29.7143 15.7665 29.3531 16.6385 28.7101 17.2815C28.0671 17.9245 27.195 18.2857 26.2857 18.2857H5.71429C4.80497 18.2857 3.9329 17.9245 3.28992 17.2815C2.64694 16.6385 2.28571 15.7665 2.28571 14.8571V5.71429Z" fill="white"/>
</svg>
