<svg width="32" height="32" viewBox="0 0 32 32" fill="none" xmlns="http://www.w3.org/2000/svg">
<path d="M16 16C18.1217 16 20.1566 15.1571 21.6569 13.6569C23.1571 12.1566 24 10.1217 24 8C24 5.87827 23.1571 3.84344 21.6569 2.34315C20.1566 0.842855 18.1217 0 16 0C13.8783 0 11.8434 0.842855 10.3431 2.34315C8.84286 3.84344 8 5.87827 8 8C8 10.1217 8.84286 12.1566 10.3431 13.6569C11.8434 15.1571 13.8783 16 16 16V16ZM21.3333 8C21.3333 9.41449 20.7714 10.771 19.7712 11.7712C18.771 12.7714 17.4145 13.3333 16 13.3333C14.5855 13.3333 13.229 12.7714 12.2288 11.7712C11.2286 10.771 10.6667 9.41449 10.6667 8C10.6667 6.58551 11.2286 5.22896 12.2288 4.22876C13.229 3.22857 14.5855 2.66667 16 2.66667C17.4145 2.66667 18.771 3.22857 19.7712 4.22876C20.7714 5.22896 21.3333 6.58551 21.3333 8V8ZM32 29.3333C32 32 29.3333 32 29.3333 32H2.66667C2.66667 32 0 32 0 29.3333C0 26.6667 2.66667 18.6667 16 18.6667C29.3333 18.6667 32 26.6667 32 29.3333ZM29.3333 29.3227C29.3307 28.6667 28.9227 26.6933 27.1147 24.8853C25.376 23.1467 22.104 21.3333 16 21.3333C9.89333 21.3333 6.624 23.1467 4.88533 24.8853C3.07733 26.6933 2.672 28.6667 2.66667 29.3227H29.3333Z" fill="white"/>
</svg>
