<svg width="90" height="29" viewBox="0 0 90 29" fill="none" xmlns="http://www.w3.org/2000/svg">
<path d="M83.3325 28.5814L82.4887 24.3772H73.0612L71.5613 28.5515L64.005 28.5665C67.6023 19.9455 71.2073 11.3277 74.82 2.71314C75.435 1.25193 76.5263 0.508249 78.135 0.515723C79.365 0.526935 81.3712 0.526933 84.1575 0.519459L90 28.5702L83.3325 28.5814ZM75.1837 18.6183H81.2588L78.99 8.07964L75.1837 18.6183ZM26.475 0.511985L34.0725 0.519459L22.3275 28.5852L14.6363 28.5777C12.7022 21.1645 10.7922 13.745 8.90625 6.31946C8.53125 4.83956 7.78875 3.80438 6.36 3.31482C4.24959 2.61009 2.12938 1.93485 0 1.28931L0 0.523197H12.1387C14.2387 0.523197 15.465 1.53595 15.8588 3.61379C16.2563 5.69536 17.2537 10.9946 18.8587 19.5115L26.475 0.511985ZM44.5125 0.519459L38.505 28.5777L31.275 28.5702L37.275 0.511985L44.5125 0.519459V0.519459ZM59.175 0C61.3387 0 64.065 0.672681 65.6325 1.28931L64.365 7.10799C62.9475 6.53995 60.615 5.77384 58.6537 5.8C55.8037 5.84858 54.0413 7.04072 54.0413 8.18428C54.0413 10.0454 57.1012 10.9834 60.2512 13.0164C63.8475 15.3334 64.32 17.4149 64.275 19.6759C64.2262 24.3697 60.2513 29 51.8663 29C48.0413 28.9439 46.6613 28.6226 43.5413 27.5201L44.8613 21.4473C48.0375 22.774 49.3837 23.1963 52.0987 23.1963C54.585 23.1963 56.7188 22.1947 56.7375 20.4495C56.7525 19.2088 55.9875 18.5921 53.1975 17.0599C50.4075 15.524 46.4925 13.3976 46.545 9.12977C46.6087 3.66611 51.8025 0 59.1788 0H59.175Z" fill="white"/>
</svg>
